<?xml version="1.0" encoding="UTF-8" standalone="no"?>
<svg
   xmlns:dc="http://purl.org/dc/elements/1.1/"
   xmlns:cc="http://creativecommons.org/ns#"
   xmlns:rdf="http://www.w3.org/1999/02/22-rdf-syntax-ns#"
   xmlns:svg="http://www.w3.org/2000/svg"
   xmlns="http://www.w3.org/2000/svg"
   xmlns:sodipodi="http://sodipodi.sourceforge.net/DTD/sodipodi-0.dtd"
   xmlns:inkscape="http://www.inkscape.org/namespaces/inkscape"
   inkscape:version="1.0 (4035a4fb49, 2020-05-01)"
   sodipodi:docname="01_keycaps_top.svg"
   version="1.1"
   viewBox="0 0 1324.488 477.6403"
   height="168.5009mm"
   width="467.2499mm"
   data-name="Layer 1"
   id="Layer_1">
  <metadata
     id="metadata63">
    <rdf:RDF>
      <cc:Work
         rdf:about="">
        <dc:format>image/svg+xml</dc:format>
        <dc:type
           rdf:resource="http://purl.org/dc/dcmitype/StillImage" />
        <dc:title></dc:title>
      </cc:Work>
    </rdf:RDF>
  </metadata>
  <sodipodi:namedview
     inkscape:current-layer="Layer_1"
     inkscape:window-maximized="0"
     inkscape:window-y="19"
     inkscape:window-x="61"
     inkscape:cy="601.23518"
     inkscape:cx="991.9835"
     inkscape:zoom="0.81423369"
     showgrid="false"
     id="namedview61"
     inkscape:window-height="948"
     inkscape:window-width="1807"
     inkscape:pageshadow="2"
     inkscape:pageopacity="0"
     guidetolerance="10"
     gridtolerance="10"
     objecttolerance="10"
     borderopacity="1"
     bordercolor="#666666"
     pagecolor="#ffffff" />
  <defs
     id="defs4">
    <style
       id="style2">.cls-1,.cls-2,.cls-3{fill:none;}.cls-1{stroke:#c2c2c2;}.cls-1,.cls-3{stroke-linecap:round;stroke-linejoin:round;}.cls-1,.cls-2{stroke-width:0.7087px;}.cls-2{stroke:#c1c230;stroke-miterlimit:10;}.cls-3{stroke:#000;stroke-width:0.7087px;}</style>
  </defs>
  <path
     id="path6"
     transform="translate(-238.195 -661.6677)"
     d="M582.3322,1073.9346l.6029-2.4185-126.8678-31.6314a4.252,4.252,0,0,1-3.0969-5.1546l12.038-48.2716-24.2808-6.0557V980.6a4.252,4.252,0,0,1-4.252,4.252h-9.248V1034.6a4.252,4.252,0,0,1-4.252,4.252H293.6446a4.252,4.252,0,0,1-4.252-4.252v-49.748h-22.748a4.252,4.252,0,0,1-4.252-4.252V932.27a4.2519,4.2519,0,0,1,4.252-4.2519h36.1543V878.27a4.252,4.252,0,0,1,4.252-4.252h22.8417V824.27a4.252,4.252,0,0,1,4.252-4.252h36.248V770.27a4.252,4.252,0,0,1,4.252-4.252h102.331a4.252,4.252,0,0,1,4.252,4.252v39.5458l9.4959-38.1a4.252,4.252,0,0,1,5.1548-3.0973l48.2692,12.04.6049-2.4268a4.252,4.252,0,0,1,5.1543-3.0974l46.8935,11.69a4.2519,4.2519,0,0,1,3.0972,5.1541l-.6049,2.4266,48.2748,12.0386a4.2519,4.2519,0,0,1,3.0968,5.1544l-.6035,2.42,48.267,12.0385a4.2521,4.2521,0,0,1,3.0968,5.1541L689.0489,880.854,675.981,933.2485l-12.7182,51.02,48.2694,12.0386a4.2519,4.2519,0,0,1,3.0968,5.1539l-12.3745,49.6444-12.3827,49.6443a4.252,4.252,0,0,1-5.1543,3.0966l-99.2883-24.7572A4.2519,4.2519,0,0,1,582.3322,1073.9346Z"
     class="cls-1" />
  <path
     id="path8"
     transform="translate(-238.195 -661.6677)"
     d="M744.4558,760.558l48.2684-12.0326-.605-2.4254a4.252,4.252,0,0,1,3.0972-5.1549l48.2744-12.032-.6049-2.4266a4.2519,4.2519,0,0,1,3.0972-5.1541l46.8938-11.69a4.252,4.252,0,0,1,5.154,3.0967l.6039,2.4209,48.2708-12.0336a4.252,4.252,0,0,1,5.1541,3.0967l11.6959,46.8937a4.252,4.252,0,0,1-3.0973,5.1547l-46.9,11.69a4.252,4.252,0,0,1-5.1541-3.0973l-.6029-2.4184-49.646,12.374.6049,2.4266a4.2519,4.2519,0,0,1-3.0973,5.1541l-48.2683,12.0321.6051,2.426a4.252,4.252,0,0,1-3.0973,5.1548l-46.9,11.6893a4.252,4.252,0,0,1-5.154-3.0972l-11.69-46.8929A4.2519,4.2519,0,0,1,744.4558,760.558Z"
     class="cls-1" />
  <rect
     id="rect10"
     rx="4.252"
     height="56.835"
     width="110.834"
     y="36.8499"
     x="840.9442"
     class="cls-1" />
  <rect
     id="rect12"
     rx="4.252"
     height="56.835"
     width="110.834"
     y="36.8499"
     x="726.1981"
     class="cls-1" />
  <path
     id="path14"
     transform="translate(-238.195 -661.6677)"
     d="M302.8926,751.1006V702.7738a4.2562,4.2562,0,0,1,4.2562-4.2562h48.3268a4.252,4.252,0,0,1,4.252,4.252v48.331a4.252,4.252,0,0,1-4.252,4.252h-48.331A4.252,4.252,0,0,1,302.8926,751.1006Z"
     class="cls-1" />
  <rect
     id="rect16"
     rx="4.252"
     height="56.835"
     width="110.835"
     y="36.8499"
     x="145.6976"
     class="cls-1" />
  <path
     id="path18"
     transform="translate(-238.195 -661.6677)"
     d="M666.3887,748.5254l.6049-2.4257a4.2519,4.2519,0,0,0-3.0973-5.1545l-48.2742-12.0321.6049-2.4266a4.2519,4.2519,0,0,0-3.0972-5.1541l-46.8937-11.69a4.252,4.252,0,0,0-5.1542,3.0972l-.6033,2.42-48.2713-12.0335a4.2519,4.2519,0,0,0-5.1542,3.0972l-11.69,46.8936a4.2519,4.2519,0,0,0,3.0972,5.1542l46.8936,11.69a4.252,4.252,0,0,0,5.1542-3.0973l.6033-2.42,49.6451,12.3755-.6049,2.4266a4.2519,4.2519,0,0,0,3.0973,5.1541l48.2688,12.0321-.6051,2.426a4.252,4.252,0,0,0,3.0973,5.1548l46.9,11.6893a4.2519,4.2519,0,0,0,5.154-3.0972l11.69-46.8928a4.252,4.252,0,0,0-3.0973-5.1542Z"
     class="cls-1" />
  <rect
     id="rect20"
     rx="4.252"
     height="56.835"
     width="110.834"
     y="36.8499"
     x="955.6981"
     class="cls-1" />
  <rect
     id="rect22"
     rx="4.252"
     height="56.835"
     width="218.834"
     y="36.8499"
     x="1077.1981"
     class="cls-1" />
  <rect
     id="rect24"
     rx="4.252"
     height="272.8345"
     width="218.834"
     y="104.3499"
     x="1077.1981"
     class="cls-1" />
  <path
     id="path26"
     transform="translate(-238.195 -661.6677)"
     d="M756.8663,1051.105l-12.3822-49.6439a4.2521,4.2521,0,0,1,3.0967-5.1546L795.85,984.2681l-12.7178-51.02L770.064,880.854,757.6886,831.21a4.252,4.252,0,0,1,3.0967-5.1541l48.267-12.0385-.6036-2.4195a4.252,4.252,0,0,1,3.0967-5.1548l48.275-12.0385-.6048-2.4268a4.2519,4.2519,0,0,1,3.0973-5.1538l46.8939-11.69a4.2521,4.2521,0,0,1,5.154,3.0964l.6056,2.4271,48.2688-12.0393a4.252,4.252,0,0,1,5.1546,3.0967l9.5033,38.1067V770.27a4.252,4.252,0,0,1,4.252-4.252h264.33a4.252,4.252,0,0,1,4.252,4.252v48.331a4.252,4.252,0,0,1-4.252,4.252h-9.248V928.0181h9.248a4.2519,4.2519,0,0,1,4.252,4.2519v49.7481h49.748a4.2519,4.2519,0,0,1,4.252,4.2519v48.33a4.252,4.252,0,0,1-4.252,4.252h-291.33a4.252,4.252,0,0,1-4.252-4.252v-50.832L967.91,992.9927l12.0322,48.268a4.2521,4.2521,0,0,1-3.0972,5.1541l-61.37,15.3005.6034,2.42a4.252,4.252,0,0,1-3.097,5.1541l-138.5851,34.5558a4.2519,4.2519,0,0,1-5.1544-3.0972Z"
     class="cls-1" />
  <path
     sodipodi:nodetypes="ccccccccssccccccc"
     id="path28"
     transform="translate(-238.195,-661.6677)"
     d="m 244.2193,1138.9534 177.56,10e-5 h 258.15 l 6.9263,2e-4 84.605,-2e-4 h 6.9017 l 259.1521,-65.908 h 519.1462 c 3.1311,0 5.6693,-2.5382 5.6693,-5.6693 V 667.6951 c 0,-3.13129 -2.5386,-5.66959 -5.6699,-5.6692 l -772.4436,-0.004 -539.9968,0.004 c -3.13101,1.1e-4 -5.66914,2.53829 -5.6692,5.6693 l -5e-4,465.5889 m 0,0 c 0,3.1311 2.53829,5.6694 5.6694,5.6693"
     class="cls-2" />
  <g
     id="SPLINE">
    <circle
       id="circle30"
       r="3.8268"
       cy="14.5267"
       cx="14.5267"
       class="cls-3" />
  </g>
  <g
     data-name="SPLINE"
     id="SPLINE-2">
    <circle
       id="circle33"
       r="3.8268"
       cy="397.2065"
       cx="14.5276"
       class="cls-3" />
  </g>
  <g
     data-name="SPLINE"
     id="SPLINE-3">
    <circle
       id="circle36"
       r="3.8268"
       cy="434.1752"
       cx="332.4768"
       class="cls-3" />
  </g>
  <g
     data-name="SPLINE"
     id="SPLINE-4">
    <circle
       id="circle39"
       r="3.8268"
       cy="434.0956"
       cx="650.4259"
       class="cls-3" />
  </g>
  <g
     data-name="SPLINE"
     id="SPLINE-5">
    <circle
       id="circle42"
       r="3.8268"
       cy="397.2304"
       cx="968.374"
       class="cls-3" />
  </g>
  <g
     data-name="SPLINE"
     id="SPLINE-6">
    <circle
       id="circle45"
       r="3.8268"
       cy="397.2068"
       cx="1309.9613"
       class="cls-3" />
  </g>
  <g
     data-name="SPLINE"
     id="SPLINE-7">
    <circle
       id="circle48"
       r="3.8268"
       cy="14.6661"
       cx="1309.8251"
       class="cls-3" />
  </g>
  <g
     data-name="SPLINE"
     id="SPLINE-8">
    <circle
       id="circle51"
       r="3.8268"
       cy="14.6661"
       cx="968.374"
       class="cls-3" />
  </g>
  <g
     data-name="SPLINE"
     id="SPLINE-9">
    <circle
       id="circle54"
       r="3.8268"
       cy="14.6661"
       cx="650.4259"
       class="cls-3" />
  </g>
  <g
     data-name="SPLINE"
     id="SPLINE-10">
    <circle
       id="circle57"
       r="3.8268"
       cy="14.5267"
       cx="332.4747"
       class="cls-3" />
  </g>
</svg>
